# xmcd
#
# Track frame offsets: 
#        150
#        4240
#        9926
#        47695
#        66963
#        83160
#        102854
#        113463
#        124072
#
# Disc length: 1795 seconds
#
# Revision: 0
# Processed by: cddbd v1.5.2PL0 Copyright (c) Steve Scherf et al.
# Submitted via: ExactAudioCopy v1.0b1
#
DISCID=63070109
DTITLE=Albert King - Thursday Night In San Francisco
DYEAR=1968
DGENRE=Modern Electric Blues
TTITLE0=San-Ho-Zay
TTITLE1=You Upset Me, Baby
TTITLE2=Call It Stormy Monday
TTITLE3=Everyday I Have The Blues
TTITLE4=Drifting Blues
TTITLE5=I've Made Nights By Myself
TTITLE6=Crosscut Saw
TTITLE7=I'm Gonna Move To The Outskirts Of Town
TTITLE8=Ooh-Ee-Baby
EXTD=
EXTT0=
EXTT1=
EXTT2=
EXTT3=
EXTT4=
EXTT5=
EXTT6=
EXTT7=
EXTT8=
PLAYORDER=
